<svg version="1.1" id="Layer_1" xmlns:x="ns_extend;" xmlns:i="ns_ai;" xmlns:graph="ns_graphs;" xmlns="http://www.w3.org/2000/svg" xmlns:xlink="http://www.w3.org/1999/xlink" x="0px" y="0px" viewBox="0 0 71.4 80" style="enable-background:new 0 0 71.4 80;" xml:space="preserve">
 <style type="text/css">
  .st0{fill-rule:evenodd;clip-rule:evenodd;fill:#FFFFFF;}
 </style>
 <metadata>
  <sfw xmlns="ns_sfw;">
   <slices>
   </slices>
   <sliceSourceBounds bottomLeftOrigin="true" height="80" width="71.4" x="-71.8" y="-19.8">
   </sliceSourceBounds>
  </sfw>
 </metadata>
 <g>
  <path class="st0" d="M15,29.7h-0.4v0.4v4v0.4H15h5.7v15.5v0.4H21h4.4h0.4v-0.4V34.5h5.7h0.4v-0.4v-4v-0.4h-0.4H15z">
  </path>
  <path class="st0" d="M37.8,29.7h8.1c6.3,0,10.9,4.3,10.9,10.3c0,6-4.6,10.3-10.9,10.3h-8.1V29.7z M42.9,45.6h3v0
		c3.4,0,5.6-2.2,5.6-5.6c0-3.4-2.3-5.6-5.6-5.6h-3V45.6z">
  </path>
  <path class="st0" d="M54.2,15.6c2.4,0,4.4-2,4.4-4.4c0-2.4-2-4.4-4.4-4.4s-4.4,2-4.4,4.4C49.8,13.6,51.8,15.6,54.2,15.6z">
  </path>
  <path class="st0" d="M67.3,17l-3.5-2c-0.4,0.9-0.9,1.8-1.5,2.6l3.5,2c1.6,1,2.7,2.7,2.7,4.6v31.7c0,1.9-1,3.7-2.7,4.6L38.4,76.3
		c-1.7,1-3.7,1-5.3,0L5.6,60.5c-1.7-1-2.7-2.7-2.7-4.6V24.2c0-1.9,1-3.7,2.7-4.6L33,3.7c1.7-1,3.7-1,5.3,0l6.4,3.7
		c0.4-0.9,0.9-1.8,1.5-2.6l-6.4-3.7c-2.6-1.5-5.7-1.5-8.3,0L4.1,17C1.6,18.4,0,21.2,0,24.2v31.7c0,3,1.6,5.7,4.2,7.2l27.4,15.8
		c2.6,1.5,5.7,1.5,8.3,0L67.3,63c2.6-1.5,4.1-4.2,4.1-7.2V24.2C71.4,21.2,69.8,18.4,67.3,17z">
  </path>
 </g>
</svg>